<svg xmlns="http://www.w3.org/2000/svg" width="64" height="64" viewBox="0 0 64 64">
  <g class="nc-icon-wrapper">
    <path fill="none" stroke="currentColor" stroke-linecap="square" stroke-miterlimit="10" stroke-width="2" d="M52 46H12C6.477 46 2 41.523 2 36v-8c0-5.523 4.477-10 10-10h40c5.523 0 10 4.477 10 10v8c0 5.523-4.477 10-10 10z"/>
    <path fill="none" stroke="currentColor" stroke-linecap="square" stroke-miterlimit="10" stroke-width="2" d="M42 18c-5.523 0-10 4.477-10 10v8c0 5.523-4.477 10-10 10"/>
    <path fill="currentColor" stroke-linecap="square" d="M19.544 37.533h-2.616L15.46 31.84c-.054-.203-.147-.621-.278-1.256s-.206-1.061-.226-1.279c-.03.267-.104.696-.222 1.286-.119.591-.21 1.012-.274 1.264L13 37.533h-2.61L7.625 26.697h2.261l1.386 5.915c.242 1.092.418 2.038.526 2.839.03-.282.098-.718.204-1.308a14.47 14.47 0 01.3-1.375l1.579-6.071h2.172l1.579 6.071c.069.272.156.687.259 1.245.104.558.183 1.038.237 1.438.049-.385.128-.866.237-1.442s.208-1.041.296-1.397l1.379-5.915h2.261l-2.757 10.836zM23.391 27.104c0-.736.41-1.104 1.23-1.104.82 0 1.23.368 1.23 1.104 0 .351-.103.624-.308.819-.205.195-.513.293-.923.293-.819 0-1.229-.37-1.229-1.112zM23.487 29.247h2.261v8.287h-2.261zM43.789 37.533h-2.261V26.697h6.211v1.883h-3.951v2.794h3.676v1.875h-3.676v4.284zM49.586 27.104c0-.736.41-1.104 1.23-1.104s1.23.368 1.23 1.104c0 .351-.103.624-.308.819-.205.195-.513.293-.923.293-.819 0-1.229-.37-1.229-1.112zM49.682 29.247h2.261v8.287h-2.261z" data-stroke="none"/>
    <path fill="none" stroke="currentColor" stroke-miterlimit="10" stroke-width="2" d="M17 12.047C20.224 7.197 25.739 4 32 4c6.26 0 11.774 3.196 14.999 8.046M17 51.953C20.224 56.803 25.739 60 32 60c6.26 0 11.774-3.196 14.999-8.046"/>
  </g>
</svg>
